<?xml version="1.0" encoding="UTF-8"?>
<svg id="Calque_2" data-name="Calque 2" xmlns="http://www.w3.org/2000/svg" viewBox="0 0 103.49 45.67">
  <defs>
    <style>
      .cls-1 {
        fill: #ed6b1f;
      }

      .cls-2 {
        fill: #fff;
      }
    </style>
  </defs>
  <g id="Calque_1-2" data-name="Calque 1">
    <path class="cls-2" d="M103.49,0v45.54l-17.11.13h0v-16.4c0-.08-.1-.1-.15-.04l-9.33,16.44h-7.64l-6.37-18.02h0c.03-.14,9.86-23.29,10.2-24.12.01,0,4.9,18.06,4.95,18.06,0,0,12.29-21.59,12.51-21.59h12.95Z"/>
    <path class="cls-1" d="M28.17,45.62h20.07C54.75,30.41,61.27,15.21,67.78,0h-20.07c-6.51,15.21-13.03,30.41-19.54,45.62Z"/>
    <path class="cls-1" d="M12.58,45.62h8.51C27.6,30.41,34.11,15.21,40.62,0h-8.9c-6.38,15.21-12.76,30.41-19.14,45.62h0Z"/>
    <path class="cls-1" d="M0,45.62h4.58C11.1,30.41,17.61,15.21,24.12,0h-5.07C12.7,15.21,6.35,30.41,0,45.62Z"/>
  </g>
</svg>