<svg width="162" height="162" viewBox="0 0 162 162" fill="none" xmlns="http://www.w3.org/2000/svg">
<g filter="url(#filter0_di_4_3)">
<rect x="4" width="154" height="154" rx="45" fill="url(#paint0_linear_4_3)"/>
</g>
<g filter="url(#filter1_d_4_3)">
<g clip-path="url(#clip0_4_3)">
<path d="M132 54V98.8719L115.136 99V82.8406C115.136 82.7618 115.038 82.7421 114.989 82.8012L105.793 99H98.2628L91.9845 81.2444C92.0141 81.1064 101.703 58.296 102.038 57.4782C102.048 57.4782 106.867 75.2733 106.916 75.2733C106.916 75.2733 119.029 54 119.246 54H132.01H132Z" fill="white"/>
<path d="M57.7644 98.9507H77.5455C83.9617 83.9639 90.3879 68.9869 96.8041 54H77.0231C70.6068 68.9869 64.1807 83.9639 57.7644 98.9507Z" fill="#ED6B1F"/>
<path d="M42.3989 98.9507H50.7864C57.2026 83.9639 63.6189 68.9869 70.0352 54H61.2633C54.9752 68.9869 48.687 83.9639 42.3989 98.9507Z" fill="#ED6B1F"/>
<path d="M30 98.9507H34.5141C40.9402 83.9639 47.3565 68.9869 53.7727 54H48.7757C42.5172 68.9869 36.2586 83.9639 30 98.9507Z" fill="#ED6B1F"/>
</g>
</g>
<defs>
<filter id="filter0_di_4_3" x="0" y="0" width="162" height="162" filterUnits="userSpaceOnUse" color-interpolation-filters="sRGB">
<feFlood flood-opacity="0" result="BackgroundImageFix"/>
<feColorMatrix in="SourceAlpha" type="matrix" values="0 0 0 0 0 0 0 0 0 0 0 0 0 0 0 0 0 0 127 0" result="hardAlpha"/>
<feOffset dy="4"/>
<feGaussianBlur stdDeviation="2"/>
<feComposite in2="hardAlpha" operator="out"/>
<feColorMatrix type="matrix" values="0 0 0 0 0 0 0 0 0 0 0 0 0 0 0 0 0 0 0.25 0"/>
<feBlend mode="normal" in2="BackgroundImageFix" result="effect1_dropShadow_4_3"/>
<feBlend mode="normal" in="SourceGraphic" in2="effect1_dropShadow_4_3" result="shape"/>
<feColorMatrix in="SourceAlpha" type="matrix" values="0 0 0 0 0 0 0 0 0 0 0 0 0 0 0 0 0 0 127 0" result="hardAlpha"/>
<feOffset dy="8"/>
<feGaussianBlur stdDeviation="2"/>
<feComposite in2="hardAlpha" operator="arithmetic" k2="-1" k3="1"/>
<feColorMatrix type="matrix" values="0 0 0 0 0 0 0 0 0 0 0 0 0 0 0 0 0 0 0.25 0"/>
<feBlend mode="normal" in2="shape" result="effect2_innerShadow_4_3"/>
</filter>
<filter id="filter1_d_4_3" x="22.2" y="50.2" width="117.6" height="60.6" filterUnits="userSpaceOnUse" color-interpolation-filters="sRGB">
<feFlood flood-opacity="0" result="BackgroundImageFix"/>
<feColorMatrix in="SourceAlpha" type="matrix" values="0 0 0 0 0 0 0 0 0 0 0 0 0 0 0 0 0 0 127 0" result="hardAlpha"/>
<feOffset dy="4"/>
<feGaussianBlur stdDeviation="3.9"/>
<feComposite in2="hardAlpha" operator="out"/>
<feColorMatrix type="matrix" values="0 0 0 0 0 0 0 0 0 0 0 0 0 0 0 0 0 0 0.25 0"/>
<feBlend mode="normal" in2="BackgroundImageFix" result="effect1_dropShadow_4_3"/>
<feBlend mode="normal" in="SourceGraphic" in2="effect1_dropShadow_4_3" result="shape"/>
</filter>
<linearGradient id="paint0_linear_4_3" x1="11.5" y1="8" x2="142" y2="154" gradientUnits="userSpaceOnUse">
<stop stop-color="#1C1C1C"/>
<stop offset="1" stop-color="#423025"/>
</linearGradient>
<clipPath id="clip0_4_3">
<rect width="102" height="45" fill="white" transform="translate(30 54)"/>
</clipPath>
</defs>
</svg>
